<svg width="17" height="16" viewBox="0 0 17 16" fill="none" xmlns="http://www.w3.org/2000/svg">
<path fill-rule="evenodd" clip-rule="evenodd" d="M8.12402 0C3.70575 0 0.124023 3.58172 0.124023 8C0.124023 12.4183 3.70575 16 8.12402 16C12.5423 16 16.124 12.4183 16.124 8C16.124 3.58172 12.5423 0 8.12402 0ZM8.99277 13.3193V11.1053C8.99277 10.8773 8.87877 10.7633 8.65077 10.7633H7.04877C6.80877 10.7633 6.68877 10.8833 6.68877 11.1233V13.3013C6.68877 13.5653 6.80877 13.6973 7.04877 13.6973H8.65077C8.87877 13.6973 8.99277 13.5713 8.99277 13.3193ZM8.97477 9.21533V8.74733C8.97477 8.45933 9.13077 8.17133 9.44277 7.88333L10.6668 6.89333C11.2068 6.42533 11.4768 5.89733 11.4768 5.30933V5.05733C11.4768 4.12133 11.2188 3.40133 10.7028 2.89733C10.1868 2.39333 9.45477 2.14133 8.50677 2.14133H7.44477C6.49677 2.14133 5.76477 2.39333 5.24877 2.89733C4.73277 3.40133 4.47477 4.12133 4.47477 5.05733V5.47133C4.47477 5.73533 4.60077 5.86733 4.85277 5.86733H6.38277C6.63477 5.86733 6.76077 5.73533 6.76077 5.47133V5.09333C6.76077 4.70933 6.83877 4.43933 6.99477 4.28333C7.16277 4.12733 7.43277 4.04933 7.80477 4.04933H8.12877C8.52477 4.04933 8.80677 4.13333 8.97477 4.30133C9.15477 4.45733 9.24477 4.72133 9.24477 5.09333V5.20133C9.24477 5.56133 9.05277 5.89133 8.66877 6.19133L7.66077 7.01933C7.34877 7.27133 7.12677 7.52333 6.99477 7.77533C6.86277 8.01533 6.79677 8.33333 6.79677 8.72933V9.21533C6.79677 9.46733 6.92277 9.59333 7.17477 9.59333H8.59677C8.84877 9.59333 8.97477 9.46733 8.97477 9.21533Z" fill="white"/>
</svg>
