<svg width="47" height="51" viewBox="0 0 47 51" fill="none" xmlns="http://www.w3.org/2000/svg">
<path opacity="0.3" fill-rule="evenodd" clip-rule="evenodd" d="M46.0825 0.036438H0.0825195V50.0364H46.0825V0.036438ZM28.8615 24.3083H23.8695V19.2523C23.8695 18.9963 23.7415 18.8683 23.4855 18.8683H22.7495C22.4935 18.8683 22.3655 18.9963 22.3655 19.2523V24.3083H17.3735C17.1175 24.3083 16.9895 24.4256 16.9895 24.6603V25.3643C16.9895 25.599 17.1175 25.7163 17.3735 25.7163H22.3655V30.7723C22.3655 31.0283 22.4935 31.1563 22.7495 31.1563H23.4855C23.7415 31.1563 23.8695 31.0283 23.8695 30.7723V25.7163H28.8615C29.1175 25.7163 29.2455 25.599 29.2455 25.3643V24.6603C29.2455 24.4256 29.1175 24.3083 28.8615 24.3083Z" fill="white"/>
</svg>
