<svg width="17" height="17" viewBox="0 0 17 17" fill="none" xmlns="http://www.w3.org/2000/svg">
<g clip-path="url(#clip0)">
<path d="M7.71362 0.527222H9.71362V8.52722H7.71362V0.527222ZM11.7136 1.12097L11.7605 1.1366C12.4897 1.43868 13.1563 1.83712 13.7605 2.33191C14.3647 2.8267 14.8855 3.39441 15.323 4.03503C15.7605 4.67566 16.1016 5.37618 16.3464 6.1366C16.5912 6.89701 16.7136 7.69389 16.7136 8.52722C16.7136 9.63139 16.5053 10.6705 16.0886 11.6444C15.672 12.6184 15.1016 13.4673 14.3777 14.1913C13.6537 14.9152 12.8048 15.4856 11.8308 15.9022C10.8569 16.3189 9.81779 16.5272 8.71362 16.5272C7.60946 16.5272 6.57039 16.3189 5.59644 15.9022C4.62248 15.4856 3.77352 14.9152 3.04956 14.1913C2.3256 13.4673 1.75529 12.6184 1.33862 11.6444C0.921956 10.6705 0.713623 9.63139 0.713623 8.52722C0.713623 7.69389 0.836019 6.89701 1.08081 6.1366C1.3256 5.37618 1.66675 4.67566 2.10425 4.03503C2.54175 3.39441 3.06779 2.8241 3.68237 2.3241C4.29696 1.8241 4.97404 1.42305 5.71362 1.12097L5.68237 3.35535C5.24487 3.61576 4.84123 3.92826 4.47144 4.29285C4.10164 4.65743 3.78654 5.06108 3.52612 5.50378C3.26571 5.94649 3.06519 6.42305 2.92456 6.93347C2.78394 7.44389 2.71362 7.97514 2.71362 8.52722C2.71362 9.36056 2.86987 10.1418 3.18237 10.871C3.49487 11.6001 3.92456 12.2356 4.47144 12.7772C5.01831 13.3189 5.65373 13.746 6.37769 14.0585C7.10164 14.371 7.88029 14.5272 8.71362 14.5272C9.54696 14.5272 10.3256 14.371 11.0496 14.0585C11.7735 13.746 12.4089 13.3189 12.9558 12.7772C13.5027 12.2356 13.9324 11.6001 14.2449 10.871C14.5574 10.1418 14.7136 9.36056 14.7136 8.52722C14.7136 7.97514 14.6433 7.44389 14.5027 6.93347C14.3621 6.42305 14.1589 5.94649 13.8933 5.50378C13.6277 5.06108 13.31 4.65483 12.9402 4.28503C12.5704 3.91524 12.1615 3.60014 11.7136 3.33972V1.12097Z" fill="white"/>
</g>
<defs>
<clipPath id="clip0">
<rect width="16" height="16" fill="white" transform="translate(0.713623 0.527222)"/>
</clipPath>
</defs>
</svg>
